<?xml version="1.0" standalone="yes"?>
<svg width="24" height="24">
<path style="fill:#ffffff; stroke:none;" d="M0 0L0 24L24 24L24 0L0 0z"/>
<path style="fill:#62461d; stroke:none;" d="M10 1L10 2L14 2L10 1z"/>
<path style="fill:#ffb74a; stroke:none;" d="M10 2L10 5L14 5L14 2L10 2z"/>
<path style="fill:#77572b; stroke:none;" d="M8 8L16 8C13.6764 4.72469 10.3236 4.72469 8 8z"/>
<path style="fill:#b2833d; stroke:none;" d="M9 7L9 12L10 12L9 7z"/>
<path style="fill:#8f79b8; stroke:none;" d="M10 7L10 13L14 13L14 7L10 7z"/>
<path style="fill:#ecaf67; stroke:none;" d="M11.6667 7.33333L12.3333 7.66667L11.6667 7.33333z"/>
<path style="fill:#b0813b; stroke:none;" d="M14 7L15 11L16 11L14 7z"/>
<path style="fill:#4c2017; stroke:none;" d="M3 9L3 10L6 10L3 9z"/>
<path style="fill:#b1a271; stroke:none;" d="M14 9L16 14L14 9z"/>
<path style="fill:#4c2017; stroke:none;" d="M18 9L18 10L21 10L18 9z"/>
<path style="fill:#c15f49; stroke:none;" d="M3 10L3 16L6 16L6 10L3 10M18 10L18 16L21 16L21 10L18 10z"/>
<path style="fill:#baa874; stroke:none;" d="M8 11L10 14L8 11z"/>
<path style="fill:#303f45; stroke:none;" d="M1 12L1 14L3 14L3 12L1 12z"/>
<path style="fill:#60717a; stroke:none;" d="M6 12L6 14L8 14L8 12L6 12z"/>
<path style="fill:#303f45; stroke:none;" d="M16 12L16 14L18 14L18 12L16 12z"/>
<path style="fill:#171f22; stroke:none;" d="M21 12L21 14L23 14L23 12L21 12z"/>
<path style="fill:#429293; stroke:none;" d="M9 17L15 17C13.6036 12.7988 10.3963 12.7988 9 17z"/>
<path style="fill:#533c1c; stroke:none;" d="M8 14L9 15L8 14M15 14L16 15L15 14z"/>
<path style="fill:#4c2017; stroke:none;" d="M3 16L3 17L6 17L3 16z"/>
<path style="fill:#664923; stroke:none;" d="M8.33333 16.6667L8.66667 17.3333L8.33333 16.6667z"/>
<path style="fill:#392913; stroke:none;" d="M15.3333 16.6667L15.6667 17.3333L15.3333 16.6667z"/>
<path style="fill:#4c2017; stroke:none;" d="M18 16L18 17L21 17L18 16z"/>
<path style="fill:#feba57; stroke:none;" d="M9 17L8 22L11 17L9 17z"/>
<path style="fill:#191208; stroke:none;" d="M11.6667 17.3333L12.3333 17.6667L11.6667 17.3333z"/>
<path style="fill:#feba57; stroke:none;" d="M13 17L14 22L15 22L13 17z"/>
<path style="fill:#8a662f; stroke:none;" d="M15 18L15 22L16 22L15 18z"/>
<path style="fill:#563e1d; stroke:none;" d="M13 19L13 22L14 22L13 19z"/>
<path style="fill:#20160b; stroke:none;" d="M10 21L11 22L10 21z"/>
</svg>
